<?xml version="1.0" encoding="utf-8" standalone="no"?>
<!DOCTYPE svg PUBLIC "-//W3C//DTD SVG 1.1//EN"
  "http://www.w3.org/Graphics/SVG/1.1/DTD/svg11.dtd">
<svg xmlns:xlink="http://www.w3.org/1999/xlink" width="526.79952pt" height="375.59952pt" viewBox="0 0 526.79952 375.59952" xmlns="http://www.w3.org/2000/svg" version="1.1">
 <metadata>
  <rdf:RDF xmlns:dc="http://purl.org/dc/elements/1.1/" xmlns:cc="http://creativecommons.org/ns#" xmlns:rdf="http://www.w3.org/1999/02/22-rdf-syntax-ns#">
   <cc:Work>
    <dc:type rdf:resource="http://purl.org/dc/dcmitype/StillImage"/>
    <dc:date>2026-07-06T10:31:15.690694</dc:date>
    <dc:format>image/svg+xml</dc:format>
    <dc:creator>
     <cc:Agent>
      <dc:title>Matplotlib v3.5.2, https://matplotlib.org/</dc:title>
     </cc:Agent>
    </dc:creator>
   </cc:Work>
  </rdf:RDF>
 </metadata>
 <defs>
  <style type="text/css">*{stroke-linejoin: round; stroke-linecap: butt}</style>
 </defs>
 <g id="figure_1">
  <g id="patch_1">
   <path d="M 0 375.59952 
L 526.79952 375.59952 
L 526.79952 0 
L 0 0 
z
" style="fill: #ffffff"/>
  </g>
  <g id="axes_1">
   <g id="table_1">
    <g id="patch_2">
     <path d="M 50.957875 48.821562 
L 111.540715 48.821562 
L 111.540715 28.272678 
L 50.957875 28.272678 
z
" style="fill: #23395b; stroke: #000000; stroke-width: 0.4; stroke-linejoin: miter"/>
    </g>
    <g id="text_1">
     <text style="fill: #ffffff; font: 700 5.8px 'sans-serif'; text-anchor: middle" x="81.249295" y="40.050589" transform="rotate(-0, 81.249295, 40.050589)">Literature need</text>
    </g>
    <g id="patch_3">
     <path d="M 111.540715 48.821562 
L 180.201267 48.821562 
L 180.201267 28.272678 
L 111.540715 28.272678 
z
" style="fill: #23395b; stroke: #000000; stroke-width: 0.4; stroke-linejoin: miter"/>
    </g>
    <g id="text_2">
     <text style="fill: #ffffff; font: 700 5.8px 'sans-serif'; text-anchor: middle" x="145.870991" y="40.050589" transform="rotate(-0, 145.870991, 40.050589)">Risk in this result</text>
    </g>
    <g id="patch_4">
     <path d="M 180.201267 48.821562 
L 252.900676 48.821562 
L 252.900676 28.272678 
L 180.201267 28.272678 
z
" style="fill: #23395b; stroke: #000000; stroke-width: 0.4; stroke-linejoin: miter"/>
    </g>
    <g id="text_3">
     <text style="fill: #ffffff; font: 700 5.8px 'sans-serif'; text-anchor: middle" x="216.550972" y="40.050589" transform="rotate(-0, 216.550972, 40.050589)">Implemented response</text>
    </g>
    <g id="patch_5">
     <path d="M 50.957875 69.370446 
L 111.540715 69.370446 
L 111.540715 48.821562 
L 50.957875 48.821562 
z
" style="fill: #f7f7f7; stroke: #000000; stroke-width: 0.4; stroke-linejoin: miter"/>
    </g>
    <g id="text_4">
     <text style="font: 5.8px 'sans-serif'; text-anchor: middle" x="81.249295" y="60.56141" transform="rotate(-0, 81.249295, 60.56141)">FWI challenge</text>
    </g>
    <g id="patch_6">
     <path d="M 111.540715 69.370446 
L 180.201267 69.370446 
L 180.201267 48.821562 
L 111.540715 48.821562 
z
" style="fill: #f7f7f7; stroke: #000000; stroke-width: 0.4; stroke-linejoin: miter"/>
    </g>
    <g id="text_5">
     <text style="font: 5.8px 'sans-serif'" transform="translate(127.013288 57.460132)">cycle skipping;</text>
     <text style="font: 5.8px 'sans-serif'" transform="translate(125.076632 63.662689)">weak salt edges</text>
    </g>
    <g id="patch_7">
     <path d="M 180.201267 69.370446 
L 252.900676 69.370446 
L 252.900676 48.821562 
L 180.201267 48.821562 
z
" style="fill: #e8f3ee; stroke: #000000; stroke-width: 0.4; stroke-linejoin: miter"/>
    </g>
    <g id="text_6">
     <text style="font: 5.8px 'sans-serif'" transform="translate(199.305034 57.460132)">model-quality</text>
     <text style="font: 5.8px 'sans-serif'" transform="translate(210.9073 63.662689)">gate</text>
    </g>
    <g id="patch_8">
     <path d="M 50.957875 89.91933 
L 111.540715 89.91933 
L 111.540715 69.370446 
L 50.957875 69.370446 
z
" style="fill: #f7f7f7; stroke: #000000; stroke-width: 0.4; stroke-linejoin: miter"/>
    </g>
    <g id="text_7">
     <text style="font: 5.8px 'sans-serif'; text-anchor: middle" x="81.249295" y="81.110295" transform="rotate(-0, 81.249295, 81.110295)">Regularization</text>
    </g>
    <g id="patch_9">
     <path d="M 111.540715 89.91933 
L 180.201267 89.91933 
L 180.201267 69.370446 
L 111.540715 69.370446 
z
" style="fill: #f7f7f7; stroke: #000000; stroke-width: 0.4; stroke-linejoin: miter"/>
    </g>
    <g id="text_8">
     <text style="font: 5.8px 'sans-serif'" transform="translate(134.590444 78.076985)">structure</text>
     <text style="font: 5.8px 'sans-serif'" transform="translate(129.913741 84.211573)">preservation</text>
    </g>
    <g id="patch_10">
     <path d="M 180.201267 89.91933 
L 252.900676 89.91933 
L 252.900676 69.370446 
L 180.201267 69.370446 
z
" style="fill: #e8f3ee; stroke: #000000; stroke-width: 0.4; stroke-linejoin: miter"/>
    </g>
    <g id="text_9">
     <text style="font: 5.8px 'sans-serif'" transform="translate(198.815659 78.078345)">edge/gradient</text>
     <text style="font: 5.8px 'sans-serif'" transform="translate(207.207081 84.280901)">metrics</text>
    </g>
    <g id="patch_11">
     <path d="M 50.957875 110.468214 
L 111.540715 110.468214 
L 111.540715 89.91933 
L 50.957875 89.91933 
z
" style="fill: #f7f7f7; stroke: #000000; stroke-width: 0.4; stroke-linejoin: miter"/>
    </g>
    <g id="text_10">
     <text style="font: 5.8px 'sans-serif'; text-anchor: middle" x="81.249295" y="101.730319" transform="rotate(-0, 81.249295, 101.730319)">Optimization</text>
    </g>
    <g id="patch_12">
     <path d="M 111.540715 110.468214 
L 180.201267 110.468214 
L 180.201267 89.91933 
L 111.540715 89.91933 
z
" style="fill: #f7f7f7; stroke: #000000; stroke-width: 0.4; stroke-linejoin: miter"/>
    </g>
    <g id="text_11">
     <text style="font: 5.8px 'sans-serif'" transform="translate(131.523694 98.5579)">step-length</text>
     <text style="font: 5.8px 'sans-serif'" transform="translate(133.301304 104.760457)">sensitivity</text>
    </g>
    <g id="patch_13">
     <path d="M 180.201267 110.468214 
L 252.900676 110.468214 
L 252.900676 89.91933 
L 180.201267 89.91933 
z
" style="fill: #e8f3ee; stroke: #000000; stroke-width: 0.4; stroke-linejoin: miter"/>
    </g>
    <g id="text_12">
     <text style="font: 5.8px 'sans-serif'" transform="translate(200.025503 98.625869)">alpha scan +</text>
     <text style="font: 5.8px 'sans-serif'" transform="translate(202.527659 104.760457)">line search</text>
    </g>
    <g id="patch_14">
     <path d="M 50.957875 131.017099 
L 111.540715 131.017099 
L 111.540715 110.468214 
L 50.957875 110.468214 
z
" style="fill: #f7f7f7; stroke: #000000; stroke-width: 0.4; stroke-linejoin: miter"/>
    </g>
    <g id="text_13">
     <text style="font: 5.8px 'sans-serif'; text-anchor: middle" x="81.249295" y="122.242047" transform="rotate(-0, 81.249295, 122.242047)">RTM/LSRTM</text>
    </g>
    <g id="patch_15">
     <path d="M 111.540715 131.017099 
L 180.201267 131.017099 
L 180.201267 110.468214 
L 111.540715 110.468214 
z
" style="fill: #f7f7f7; stroke: #000000; stroke-width: 0.4; stroke-linejoin: miter"/>
    </g>
    <g id="text_14">
     <text style="font: 5.8px 'sans-serif'" transform="translate(125.559663 119.140769)">image condition</text>
     <text style="font: 5.8px 'sans-serif'" transform="translate(140.551304 125.343325)">bias</text>
    </g>
    <g id="patch_16">
     <path d="M 180.201267 131.017099 
L 252.900676 131.017099 
L 252.900676 110.468214 
L 180.201267 110.468214 
z
" style="fill: #e8f3ee; stroke: #000000; stroke-width: 0.4; stroke-linejoin: miter"/>
    </g>
    <g id="text_15">
     <text style="font: 5.8px 'sans-serif'" transform="translate(194.684972 119.174753)">RTM before/after</text>
     <text style="font: 5.8px 'sans-serif'" transform="translate(204.298925 125.309341)">validation</text>
    </g>
    <g id="patch_17">
     <path d="M 50.957875 151.565983 
L 111.540715 151.565983 
L 111.540715 131.017099 
L 50.957875 131.017099 
z
" style="fill: #f7f7f7; stroke: #000000; stroke-width: 0.4; stroke-linejoin: miter"/>
    </g>
    <g id="text_16">
     <text style="font: 5.8px 'sans-serif'; text-anchor: middle" x="81.249295" y="142.790931" transform="rotate(-0, 81.249295, 142.790931)">Benchmarks</text>
    </g>
    <g id="patch_18">
     <path d="M 111.540715 151.565983 
L 180.201267 151.565983 
L 180.201267 131.017099 
L 111.540715 131.017099 
z
" style="fill: #f7f7f7; stroke: #000000; stroke-width: 0.4; stroke-linejoin: miter"/>
    </g>
    <g id="text_17">
     <text style="font: 5.8px 'sans-serif'; text-anchor: middle" x="145.870991" y="142.756947" transform="rotate(-0, 145.870991, 142.756947)">reproducibility</text>
    </g>
    <g id="patch_19">
     <path d="M 180.201267 151.565983 
L 252.900676 151.565983 
L 252.900676 131.017099 
L 180.201267 131.017099 
z
" style="fill: #e8f3ee; stroke: #000000; stroke-width: 0.4; stroke-linejoin: miter"/>
    </g>
    <g id="text_18">
     <text style="font: 5.8px 'sans-serif'" transform="translate(202.124378 139.681225)">SEG/Salt +</text>
     <text style="font: 5.8px 'sans-serif'" transform="translate(201.24169 145.900637)">fixed scripts</text>
    </g>
   </g>
   <g id="text_19">
    <g id="patch_20">
     <path d="M 53.177017 30.084167 
L 59.801861 30.084167 
L 59.801861 20.246042 
L 53.177017 20.246042 
z
" style="fill: #ffffff; opacity: 0.7"/>
    </g>
    <text style="font: 700 9px 'sans-serif'; text-anchor: start" x="53.987017" y="27.498074" transform="rotate(-0, 53.987017, 27.498074)">a</text>
   </g>
   <g id="text_20">
    <text style="font: 8px 'sans-serif'; text-anchor: middle" x="151.929275" y="12.92625" transform="rotate(-0, 151.929275, 12.92625)">Literature-guided method synthesis</text>
   </g>
  </g>
  <g id="axes_2">
   <g id="patch_21">
    <path d="M 317.656719 160.912411 
L 519.59952 160.912411 
L 519.59952 18.92625 
L 317.656719 18.92625 
z
" style="fill: #ffffff"/>
   </g>
   <g id="patch_22">
    <path d="M 326.835937 122.497824 
L 352.157919 122.497824 
L 352.157919 122.497824 
L 326.835937 122.497824 
z
" clip-path="url(#pd479ebd9c0)" style="fill: #b7b7b7"/>
   </g>
   <g id="patch_23">
    <path d="M 358.488414 122.497824 
L 383.810395 122.497824 
L 383.810395 75.83657 
L 358.488414 75.83657 
z
" clip-path="url(#pd479ebd9c0)" style="fill: #2a9d8f"/>
   </g>
   <g id="patch_24">
    <path d="M 390.140891 122.497824 
L 415.462872 122.497824 
L 415.462872 38.130504 
L 390.140891 38.130504 
z
" clip-path="url(#pd479ebd9c0)" style="fill: #b7b7b7"/>
   </g>
   <g id="patch_25">
    <path d="M 421.793367 122.497824 
L 447.115349 122.497824 
L 447.115349 25.380166 
L 421.793367 25.380166 
z
" clip-path="url(#pd479ebd9c0)" style="fill: #b7b7b7"/>
   </g>
   <g id="patch_26">
    <path d="M 453.445844 122.497824 
L 478.767825 122.497824 
L 478.767825 37.232757 
L 453.445844 37.232757 
z
" clip-path="url(#pd479ebd9c0)" style="fill: #b7b7b7"/>
   </g>
   <g id="patch_27">
    <path d="M 485.098321 122.497824 
L 510.420302 122.497824 
L 510.420302 82.470962 
L 485.098321 82.470962 
z
" clip-path="url(#pd479ebd9c0)" style="fill: #b7b7b7"/>
   </g>
   <g id="matplotlib.axis_1">
    <g id="xtick_1">
     <g id="line2d_1">
      <defs>
       <path id="mb9ce82ec2b" d="M 0 0 
L 0 3.5 
" style="stroke: #000000; stroke-width: 0.6"/>
      </defs>
      <g>
       <use xlink:href="#mb9ce82ec2b" x="339.496928" y="160.912411" style="stroke: #000000; stroke-width: 0.6"/>
      </g>
     </g>
     <g id="text_21">
      <text style="font: 7px 'sans-serif'; text-anchor: middle" x="339.496928" y="172.922879" transform="rotate(-0, 339.496928, 172.922879)">0.0</text>
     </g>
    </g>
    <g id="xtick_2">
     <g id="line2d_2">
      <g>
       <use xlink:href="#mb9ce82ec2b" x="371.149405" y="160.912411" style="stroke: #000000; stroke-width: 0.6"/>
      </g>
     </g>
     <g id="text_22">
      <text style="font: 7px 'sans-serif'; text-anchor: middle" x="371.149405" y="172.922879" transform="rotate(-0, 371.149405, 172.922879)">0.1</text>
     </g>
    </g>
    <g id="xtick_3">
     <g id="line2d_3">
      <g>
       <use xlink:href="#mb9ce82ec2b" x="402.801881" y="160.912411" style="stroke: #000000; stroke-width: 0.6"/>
      </g>
     </g>
     <g id="text_23">
      <text style="font: 7px 'sans-serif'; text-anchor: middle" x="402.801881" y="172.922879" transform="rotate(-0, 402.801881, 172.922879)">0.25</text>
     </g>
    </g>
    <g id="xtick_4">
     <g id="line2d_4">
      <g>
       <use xlink:href="#mb9ce82ec2b" x="434.454358" y="160.912411" style="stroke: #000000; stroke-width: 0.6"/>
      </g>
     </g>
     <g id="text_24">
      <text style="font: 7px 'sans-serif'; text-anchor: middle" x="434.454358" y="172.922879" transform="rotate(-0, 434.454358, 172.922879)">0.5</text>
     </g>
    </g>
    <g id="xtick_5">
     <g id="line2d_5">
      <g>
       <use xlink:href="#mb9ce82ec2b" x="466.106835" y="160.912411" style="stroke: #000000; stroke-width: 0.6"/>
      </g>
     </g>
     <g id="text_25">
      <text style="font: 7px 'sans-serif'; text-anchor: middle" x="466.106835" y="172.922879" transform="rotate(-0, 466.106835, 172.922879)">0.75</text>
     </g>
    </g>
    <g id="xtick_6">
     <g id="line2d_6">
      <g>
       <use xlink:href="#mb9ce82ec2b" x="497.759311" y="160.912411" style="stroke: #000000; stroke-width: 0.6"/>
      </g>
     </g>
     <g id="text_26">
      <text style="font: 7px 'sans-serif'; text-anchor: middle" x="497.759311" y="172.922879" transform="rotate(-0, 497.759311, 172.922879)">1.0</text>
     </g>
    </g>
    <g id="text_27">
     <text style="font: 7px 'sans-serif'; text-anchor: middle" x="418.62812" y="183.324598" transform="rotate(-0, 418.62812, 183.324598)">FWI update scale alpha</text>
    </g>
   </g>
   <g id="matplotlib.axis_2">
    <g id="ytick_1">
     <g id="line2d_7">
      <defs>
       <path id="mc642571714" d="M 0 0 
L -3.5 0 
" style="stroke: #000000; stroke-width: 0.6"/>
      </defs>
      <g>
       <use xlink:href="#mc642571714" x="317.656719" y="158.26917" style="stroke: #000000; stroke-width: 0.6"/>
      </g>
     </g>
     <g id="text_28">
      <text style="font: 7px 'sans-serif'; text-anchor: end" x="310.656719" y="160.774404" transform="rotate(-0, 310.656719, 160.774404)">−0.10</text>
     </g>
    </g>
    <g id="ytick_2">
     <g id="line2d_8">
      <g>
       <use xlink:href="#mc642571714" x="317.656719" y="140.383497" style="stroke: #000000; stroke-width: 0.6"/>
      </g>
     </g>
     <g id="text_29">
      <text style="font: 7px 'sans-serif'; text-anchor: end" x="310.656719" y="142.888731" transform="rotate(-0, 310.656719, 142.888731)">−0.05</text>
     </g>
    </g>
    <g id="ytick_3">
     <g id="line2d_9">
      <g>
       <use xlink:href="#mc642571714" x="317.656719" y="122.497824" style="stroke: #000000; stroke-width: 0.6"/>
      </g>
     </g>
     <g id="text_30">
      <text style="font: 7px 'sans-serif'; text-anchor: end" x="310.656719" y="125.003058" transform="rotate(-0, 310.656719, 125.003058)">0.00</text>
     </g>
    </g>
    <g id="ytick_4">
     <g id="line2d_10">
      <g>
       <use xlink:href="#mc642571714" x="317.656719" y="104.61215" style="stroke: #000000; stroke-width: 0.6"/>
      </g>
     </g>
     <g id="text_31">
      <text style="font: 7px 'sans-serif'; text-anchor: end" x="310.656719" y="107.117385" transform="rotate(-0, 310.656719, 107.117385)">0.05</text>
     </g>
    </g>
    <g id="ytick_5">
     <g id="line2d_11">
      <g>
       <use xlink:href="#mc642571714" x="317.656719" y="86.726477" style="stroke: #000000; stroke-width: 0.6"/>
      </g>
     </g>
     <g id="text_32">
      <text style="font: 7px 'sans-serif'; text-anchor: end" x="310.656719" y="89.231712" transform="rotate(-0, 310.656719, 89.231712)">0.10</text>
     </g>
    </g>
    <g id="ytick_6">
     <g id="line2d_12">
      <g>
       <use xlink:href="#mc642571714" x="317.656719" y="68.840804" style="stroke: #000000; stroke-width: 0.6"/>
      </g>
     </g>
     <g id="text_33">
      <text style="font: 7px 'sans-serif'; text-anchor: end" x="310.656719" y="71.346038" transform="rotate(-0, 310.656719, 71.346038)">0.15</text>
     </g>
    </g>
    <g id="ytick_7">
     <g id="line2d_13">
      <g>
       <use xlink:href="#mc642571714" x="317.656719" y="50.955131" style="stroke: #000000; stroke-width: 0.6"/>
      </g>
     </g>
     <g id="text_34">
      <text style="font: 7px 'sans-serif'; text-anchor: end" x="310.656719" y="53.460365" transform="rotate(-0, 310.656719, 53.460365)">0.20</text>
     </g>
    </g>
    <g id="ytick_8">
     <g id="line2d_14">
      <g>
       <use xlink:href="#mc642571714" x="317.656719" y="33.069457" style="stroke: #000000; stroke-width: 0.6"/>
      </g>
     </g>
     <g id="text_35">
      <text style="font: 7px 'sans-serif'; text-anchor: end" x="310.656719" y="35.574692" transform="rotate(-0, 310.656719, 35.574692)">0.25</text>
     </g>
    </g>
    <g id="text_36">
     <text style="font: 7px 'sans-serif'; text-anchor: middle" x="287.472344" y="89.91933" transform="rotate(-90, 287.472344, 89.91933)">Improvement (%)</text>
    </g>
   </g>
   <g id="line2d_15">
    <path d="M 339.496928 122.497824 
L 371.149405 121.080765 
L 402.801881 123.366151 
L 434.454358 133.196745 
L 466.106835 143.227881 
L 497.759311 154.458494 
" clip-path="url(#pd479ebd9c0)" style="fill: none; stroke: #c0392b; stroke-width: 1.1; stroke-linecap: square"/>
    <defs>
     <path id="m986b53f0d5" d="M 0 3 
C 0.795609 3 1.55874 2.683901 2.12132 2.12132 
C 2.683901 1.55874 3 0.795609 3 0 
C 3 -0.795609 2.683901 -1.55874 2.12132 -2.12132 
C 1.55874 -2.683901 0.795609 -3 0 -3 
C -0.795609 -3 -1.55874 -2.683901 -2.12132 -2.12132 
C -2.683901 -1.55874 -3 -0.795609 -3 0 
C -3 0.795609 -2.683901 1.55874 -2.12132 2.12132 
C -1.55874 2.683901 -0.795609 3 0 3 
z
" style="stroke: #c0392b"/>
    </defs>
    <g clip-path="url(#pd479ebd9c0)">
     <use xlink:href="#m986b53f0d5" x="339.496928" y="122.497824" style="fill: #c0392b; stroke: #c0392b"/>
     <use xlink:href="#m986b53f0d5" x="371.149405" y="121.080765" style="fill: #c0392b; stroke: #c0392b"/>
     <use xlink:href="#m986b53f0d5" x="402.801881" y="123.366151" style="fill: #c0392b; stroke: #c0392b"/>
     <use xlink:href="#m986b53f0d5" x="434.454358" y="133.196745" style="fill: #c0392b; stroke: #c0392b"/>
     <use xlink:href="#m986b53f0d5" x="466.106835" y="143.227881" style="fill: #c0392b; stroke: #c0392b"/>
     <use xlink:href="#m986b53f0d5" x="497.759311" y="154.458494" style="fill: #c0392b; stroke: #c0392b"/>
    </g>
   </g>
   <g id="line2d_16">
    <path d="M 317.656719 122.497824 
L 519.59952 122.497824 
" clip-path="url(#pd479ebd9c0)" style="fill: none; stroke: #000000; stroke-width: 0.7; stroke-linecap: square"/>
   </g>
   <g id="line2d_17">
    <path d="M 371.149405 160.912411 
L 371.149405 18.92625 
" clip-path="url(#pd479ebd9c0)" style="fill: none; stroke-dasharray: 3.7,1.6; stroke-dashoffset: 0; stroke: #264653"/>
   </g>
   <g id="patch_28">
    <path d="M 317.656719 160.912411 
L 317.656719 18.92625 
" style="fill: none; stroke: #000000; stroke-width: 0.7; stroke-linejoin: miter; stroke-linecap: square"/>
   </g>
   <g id="patch_29">
    <path d="M 317.656719 160.912411 
L 519.59952 160.912411 
" style="fill: none; stroke: #000000; stroke-width: 0.7; stroke-linejoin: miter; stroke-linecap: square"/>
   </g>
   <g id="text_37">
    <g id="patch_30">
     <path d="M 319.875861 30.084167 
L 326.992893 30.084167 
L 326.992893 20.246042 
L 319.875861 20.246042 
z
" style="fill: #ffffff; opacity: 0.7"/>
    </g>
    <text style="font: 700 9px 'sans-serif'; text-anchor: start" x="320.685861" y="27.498074" transform="rotate(-0, 320.685861, 27.498074)">b</text>
   </g>
   <g id="text_38">
    <text style="font: 8px 'sans-serif'; text-anchor: middle" x="418.62812" y="12.92625" transform="rotate(-0, 418.62812, 12.92625)">Update-scale quality gate</text>
   </g>
   <g id="legend_1">
    <g id="line2d_18">
     <path d="M 394.723276 143.662411 
L 400.723276 143.662411 
L 406.723276 143.662411 
" style="fill: none; stroke: #c0392b; stroke-width: 1.1; stroke-linecap: square"/>
     <g>
      <use xlink:href="#m986b53f0d5" x="400.723276" y="143.662411" style="fill: #c0392b; stroke: #c0392b"/>
     </g>
    </g>
    <g id="text_39">
     <text style="font: 6px 'sans-serif'; text-anchor: start" x="411.523276" y="145.762411" transform="rotate(-0, 411.523276, 145.762411)">Edge MAE</text>
    </g>
    <g id="patch_31">
     <path d="M 394.723276 154.319911 
L 406.723276 154.319911 
L 406.723276 150.119911 
L 394.723276 150.119911 
z
" style="fill: #b7b7b7"/>
    </g>
    <g id="text_40">
     <text style="font: 6px 'sans-serif'; text-anchor: start" x="411.523276" y="154.319911" transform="rotate(-0, 411.523276, 154.319911)">Model MAE</text>
    </g>
   </g>
  </g>
  <g id="axes_3">
   <g id="patch_32">
    <path d="M 50.957875 344.428739 
L 252.900676 344.428739 
L 252.900676 202.442578 
L 50.957875 202.442578 
z
" style="fill: #ffffff"/>
   </g>
   <g id="patch_33">
    <path d="M 133.133775 337.974822 
L 252.290451 337.974822 
L 252.290451 320.170915 
L 133.133775 320.170915 
z
" clip-path="url(#pd5f0c97c48)" style="fill: #2a9d8f"/>
   </g>
   <g id="patch_34">
    <path d="M 133.133775 315.719938 
L 225.607242 315.719938 
L 225.607242 297.916031 
L 133.133775 297.916031 
z
" clip-path="url(#pd5f0c97c48)" style="fill: #2a9d8f"/>
   </g>
   <g id="patch_35">
    <path d="M 133.133775 293.465054 
L 220.224242 293.465054 
L 220.224242 275.661147 
L 133.133775 275.661147 
z
" clip-path="url(#pd5f0c97c48)" style="fill: #2a9d8f"/>
   </g>
   <g id="patch_36">
    <path d="M 133.133775 271.21017 
L 135.664891 271.21017 
L 135.664891 253.406263 
L 133.133775 253.406263 
z
" clip-path="url(#pd5f0c97c48)" style="fill: #2a9d8f"/>
   </g>
   <g id="patch_37">
    <path d="M 133.133775 248.955286 
L 170.463448 248.955286 
L 170.463448 231.151379 
L 133.133775 231.151379 
z
" clip-path="url(#pd5f0c97c48)" style="fill: #2a9d8f"/>
   </g>
   <g id="patch_38">
    <path d="M 133.133775 226.700402 
L 93.93807 226.700402 
L 93.93807 208.896495 
L 133.133775 208.896495 
z
" clip-path="url(#pd5f0c97c48)" style="fill: #c0392b"/>
   </g>
   <g id="matplotlib.axis_3">
    <g id="xtick_7">
     <g id="line2d_19">
      <g>
       <use xlink:href="#mb9ce82ec2b" x="63.779266" y="344.428739" style="stroke: #000000; stroke-width: 0.6"/>
      </g>
     </g>
     <g id="text_41">
      <text style="font: 7px 'sans-serif'; text-anchor: middle" x="63.779266" y="356.439207" transform="rotate(-0, 63.779266, 356.439207)">-1</text>
     </g>
    </g>
    <g id="xtick_8">
     <g id="line2d_20">
      <g>
       <use xlink:href="#mb9ce82ec2b" x="92.531526" y="344.428739" style="stroke: #000000; stroke-width: 0.6"/>
      </g>
     </g>
     <g id="text_42">
      <text style="font: 7px 'sans-serif'; text-anchor: middle" x="92.531526" y="356.439207" transform="rotate(-0, 92.531526, 356.439207)">-0.1</text>
     </g>
    </g>
    <g id="xtick_9">
     <g id="line2d_21">
      <g>
       <use xlink:href="#mb9ce82ec2b" x="133.133775" y="344.428739" style="stroke: #000000; stroke-width: 0.6"/>
      </g>
     </g>
     <g id="text_43">
      <text style="font: 7px 'sans-serif'; text-anchor: middle" x="133.133775" y="356.439207" transform="rotate(-0, 133.133775, 356.439207)">0</text>
     </g>
    </g>
    <g id="xtick_10">
     <g id="line2d_22">
      <g>
       <use xlink:href="#mb9ce82ec2b" x="173.736023" y="344.428739" style="stroke: #000000; stroke-width: 0.6"/>
      </g>
     </g>
     <g id="text_44">
      <text style="font: 7px 'sans-serif'; text-anchor: middle" x="173.736023" y="356.439207" transform="rotate(-0, 173.736023, 356.439207)">0.1</text>
     </g>
    </g>
    <g id="xtick_11">
     <g id="line2d_23">
      <g>
       <use xlink:href="#mb9ce82ec2b" x="202.488283" y="344.428739" style="stroke: #000000; stroke-width: 0.6"/>
      </g>
     </g>
     <g id="text_45">
      <text style="font: 7px 'sans-serif'; text-anchor: middle" x="202.488283" y="356.439207" transform="rotate(-0, 202.488283, 356.439207)">1</text>
     </g>
    </g>
    <g id="xtick_12">
     <g id="line2d_24">
      <g>
       <use xlink:href="#mb9ce82ec2b" x="231.240543" y="344.428739" style="stroke: #000000; stroke-width: 0.6"/>
      </g>
     </g>
     <g id="text_46">
      <text style="font: 7px 'sans-serif'; text-anchor: middle" x="231.240543" y="356.439207" transform="rotate(-0, 231.240543, 356.439207)">10</text>
     </g>
    </g>
    <g id="xtick_13">
     <g id="line2d_25">
      <g>
       <use xlink:href="#mb9ce82ec2b" x="251.337511" y="344.428739" style="stroke: #000000; stroke-width: 0.6"/>
      </g>
     </g>
     <g id="text_47">
      <text style="font: 7px 'sans-serif'; text-anchor: middle" x="251.337511" y="356.439207" transform="rotate(-0, 251.337511, 356.439207)">50</text>
     </g>
    </g>
    <g id="xtick_14">
     <g id="line2d_26">
      <defs>
       <path id="m0dc9aa32aa" d="M 0 0 
L 0 2 
" style="stroke: #000000; stroke-width: 0.6"/>
      </defs>
      <g>
       <use xlink:href="#m0dc9aa32aa" x="126.744384" y="344.428739" style="stroke: #000000; stroke-width: 0.6"/>
      </g>
     </g>
    </g>
    <g id="xtick_15">
     <g id="line2d_27">
      <g>
       <use xlink:href="#m0dc9aa32aa" x="139.523166" y="344.428739" style="stroke: #000000; stroke-width: 0.6"/>
      </g>
     </g>
    </g>
    <g id="text_48">
     <text style="font: 7px 'sans-serif'; text-anchor: middle" x="151.929275" y="366.926239" transform="rotate(-0, 151.929275, 366.926239)">Improvement or reduction (%)</text>
    </g>
   </g>
   <g id="matplotlib.axis_4">
    <g id="ytick_9">
     <g id="line2d_28">
      <g>
       <use xlink:href="#mc642571714" x="50.957875" y="329.072869" style="stroke: #000000; stroke-width: 0.6"/>
      </g>
     </g>
     <g id="text_49">
      <text style="font: 5.7px 'sans-serif'" transform="translate(20.836359 328.506431)">FWI data</text>
      <text style="font: 5.7px 'sans-serif'" transform="translate(30.659953 334.53525)">misfit</text>
     </g>
    </g>
    <g id="ytick_10">
     <g id="line2d_29">
      <g>
       <use xlink:href="#mc642571714" x="50.957875" y="306.817985" style="stroke: #000000; stroke-width: 0.6"/>
      </g>
     </g>
     <g id="text_50">
      <text style="font: 5.7px 'sans-serif'" transform="translate(7.2 306.251547)">Local adaptive</text>
      <text style="font: 5.7px 'sans-serif'" transform="translate(16.394813 312.280366)">line search</text>
     </g>
    </g>
    <g id="ytick_11">
     <g id="line2d_30">
      <g>
       <use xlink:href="#mc642571714" x="50.957875" y="284.5631" style="stroke: #000000; stroke-width: 0.6"/>
      </g>
     </g>
     <g id="text_51">
      <text style="font: 5.7px 'sans-serif'" transform="translate(15.448078 283.996663)">Local illum.</text>
      <text style="font: 5.7px 'sans-serif'" transform="translate(7.837688 290.025482)">preconditioner</text>
     </g>
    </g>
    <g id="ytick_12">
     <g id="line2d_31">
      <g>
       <use xlink:href="#mc642571714" x="50.957875" y="262.308216" style="stroke: #000000; stroke-width: 0.6"/>
      </g>
     </g>
     <g id="text_52">
      <text style="font: 5.7px 'sans-serif'" transform="translate(8.152078 261.70838)">Damped edge</text>
      <text style="font: 5.7px 'sans-serif'" transform="translate(31.605797 267.803996)">MAE</text>
     </g>
    </g>
    <g id="ytick_13">
     <g id="line2d_32">
      <g>
       <use xlink:href="#mc642571714" x="50.957875" y="240.053332" style="stroke: #000000; stroke-width: 0.6"/>
      </g>
     </g>
     <g id="text_53">
      <text style="font: 5.7px 'sans-serif'" transform="translate(13.659703 239.486895)">RTM RMSE</text>
      <text style="font: 5.7px 'sans-serif'" transform="translate(25.259203 245.515714)">change</text>
     </g>
    </g>
    <g id="ytick_14">
     <g id="line2d_33">
      <g>
       <use xlink:href="#mc642571714" x="50.957875" y="217.798448" style="stroke: #000000; stroke-width: 0.6"/>
      </g>
     </g>
     <g id="text_54">
      <text style="font: 5.7px 'sans-serif'" transform="translate(20.511281 217.198612)">Full edge</text>
      <text style="font: 5.7px 'sans-serif'" transform="translate(31.605797 223.294228)">MAE</text>
     </g>
    </g>
   </g>
   <g id="line2d_34">
    <path d="M 133.133775 344.428739 
L 133.133775 202.442578 
" clip-path="url(#pd5f0c97c48)" style="fill: none; stroke: #000000; stroke-width: 0.7; stroke-linecap: square"/>
   </g>
   <g id="patch_39">
    <path d="M 50.957875 344.428739 
L 50.957875 202.442578 
" style="fill: none; stroke: #000000; stroke-width: 0.7; stroke-linejoin: miter; stroke-linecap: square"/>
   </g>
   <g id="patch_40">
    <path d="M 50.957875 344.428739 
L 252.900676 344.428739 
" style="fill: none; stroke: #000000; stroke-width: 0.7; stroke-linejoin: miter; stroke-linecap: square"/>
   </g>
   <g id="text_55">
    <text style="font: 5.8px 'sans-serif'; text-anchor: start" x="253.480584" y="330.572259" transform="rotate(-0, 253.480584, 330.572259)">53.965%</text>
   </g>
   <g id="text_56">
    <text style="font: 5.8px 'sans-serif'; text-anchor: start" x="226.797375" y="308.317375" transform="rotate(-0, 226.797375, 308.317375)">6.369%</text>
   </g>
   <g id="text_57">
    <text style="font: 5.8px 'sans-serif'; text-anchor: start" x="221.414376" y="286.062491" transform="rotate(-0, 221.414376, 286.062491)">4.139%</text>
   </g>
   <g id="text_58">
    <text style="font: 5.8px 'sans-serif'; text-anchor: start" x="170.143752" y="263.807607" transform="rotate(-0, 170.143752, 263.807607)">0.004%</text>
   </g>
   <g id="text_59">
    <text style="font: 5.8px 'sans-serif'; text-anchor: start" x="170.143752" y="241.552723" transform="rotate(-0, 170.143752, 241.552723)">0.077%</text>
   </g>
   <g id="text_60">
    <text style="font: 5.8px 'sans-serif'; text-anchor: end" x="95.253701" y="219.297839" transform="rotate(-0, 95.253701, 219.297839)">-0.089%</text>
   </g>
   <g id="text_61">
    <g id="patch_41">
     <path d="M 53.177017 213.600496 
L 59.801861 213.600496 
L 59.801861 203.762371 
L 53.177017 203.762371 
z
" style="fill: #ffffff; opacity: 0.7"/>
    </g>
    <text style="font: 700 9px 'sans-serif'; text-anchor: start" x="53.987017" y="211.014402" transform="rotate(-0, 53.987017, 211.014402)">c</text>
   </g>
   <g id="text_62">
    <text style="font: 8px 'sans-serif'; text-anchor: middle" x="151.929275" y="196.442578" transform="rotate(-0, 151.929275, 196.442578)">Evidence strength and limitation</text>
   </g>
  </g>
  <g id="axes_4">
   <g id="text_63">
    <text style="font: 6.4px 'sans-serif'" transform="translate(321.695575 223.355264)">High-quality FWI velocity</text>
    <text style="font: 6.4px 'sans-serif'" transform="translate(321.695575 230.199464)">recovery</text>
   </g>
   <g id="text_64">
    <g id="patch_42">
     <path d="M 497.159168 229.234364 
L 505.690168 229.234364 
Q 506.842168 229.234364 506.842168 228.082364 
L 506.842168 222.238364 
Q 506.842168 221.086364 505.690168 221.086364 
L 497.159168 221.086364 
Q 496.007168 221.086364 496.007168 222.238364 
L 496.007168 228.082364 
Q 496.007168 229.234364 497.159168 229.234364 
z
" style="fill: #f7d7d2; stroke: #505050; stroke-width: 0.5; stroke-linejoin: miter"/>
    </g>
    <text style="font: 700 6.4px 'sans-serif'; text-anchor: middle" x="501.424668" y="226.819364" transform="rotate(-0, 501.424668, 226.819364)">No</text>
   </g>
   <g id="text_65">
    <text style="font: 6.4px 'sans-serif'" transform="translate(321.695575 247.571411)">Quality-gated FWI-to-RTM</text>
    <text style="font: 6.4px 'sans-serif'" transform="translate(321.695575 254.415611)">workflow</text>
   </g>
   <g id="text_66">
    <g id="patch_43">
     <path d="M 495.907168 253.372011 
L 506.942168 253.372011 
Q 508.094168 253.372011 508.094168 252.220011 
L 508.094168 246.376011 
Q 508.094168 245.224011 506.942168 245.224011 
L 495.907168 245.224011 
Q 494.755168 245.224011 494.755168 246.376011 
L 494.755168 252.220011 
Q 494.755168 253.372011 495.907168 253.372011 
z
" style="fill: #dff0e6; stroke: #505050; stroke-width: 0.5; stroke-linejoin: miter"/>
    </g>
    <text style="font: 700 6.4px 'sans-serif'; text-anchor: middle" x="501.424668" y="250.957011" transform="rotate(-0, 501.424668, 250.957011)">Yes</text>
   </g>
   <g id="text_67">
    <text style="font: 6.4px 'sans-serif'" transform="translate(321.695575 271.630558)">RTM imaging-condition</text>
    <text style="font: 6.4px 'sans-serif'" transform="translate(321.695575 278.474758)">diagnostics</text>
   </g>
   <g id="text_68">
    <g id="patch_44">
     <path d="M 495.907168 277.509658 
L 506.942168 277.509658 
Q 508.094168 277.509658 508.094168 276.357658 
L 508.094168 270.513658 
Q 508.094168 269.361658 506.942168 269.361658 
L 495.907168 269.361658 
Q 494.755168 269.361658 494.755168 270.513658 
L 494.755168 276.357658 
Q 494.755168 277.509658 495.907168 277.509658 
z
" style="fill: #dff0e6; stroke: #505050; stroke-width: 0.5; stroke-linejoin: miter"/>
    </g>
    <text style="font: 700 6.4px 'sans-serif'; text-anchor: middle" x="501.424668" y="275.094658" transform="rotate(-0, 501.424668, 275.094658)">Yes</text>
   </g>
   <g id="text_69">
    <text style="font: 6.4px 'sans-serif'" transform="translate(321.695575 295.805706)">Illumination scaling as primary</text>
    <text style="font: 6.4px 'sans-serif'" transform="translate(321.695575 302.649906)">FWI optimizer</text>
   </g>
   <g id="text_70">
    <g id="patch_45">
     <path d="M 497.159168 301.647306 
L 505.690168 301.647306 
Q 506.842168 301.647306 506.842168 300.495306 
L 506.842168 294.651306 
Q 506.842168 293.499306 505.690168 293.499306 
L 497.159168 293.499306 
Q 496.007168 293.499306 496.007168 294.651306 
L 496.007168 300.495306 
Q 496.007168 301.647306 497.159168 301.647306 
z
" style="fill: #f7d7d2; stroke: #505050; stroke-width: 0.5; stroke-linejoin: miter"/>
    </g>
    <text style="font: 700 6.4px 'sans-serif'; text-anchor: middle" x="501.424668" y="299.232306" transform="rotate(-0, 501.424668, 299.232306)">No</text>
   </g>
   <g id="text_71">
    <text style="font: 6.4px 'sans-serif'" transform="translate(321.695575 320.019853)">ML/foundation-model prior as</text>
    <text style="font: 6.4px 'sans-serif'" transform="translate(321.695575 326.789053)">main result</text>
   </g>
   <g id="text_72">
    <g id="patch_46">
     <path d="M 491.470668 325.784953 
L 511.378668 325.784953 
Q 512.530668 325.784953 512.530668 324.632953 
L 512.530668 318.788953 
Q 512.530668 317.636953 511.378668 317.636953 
L 491.470668 317.636953 
Q 490.318668 317.636953 490.318668 318.788953 
L 490.318668 324.632953 
Q 490.318668 325.784953 491.470668 325.784953 
z
" style="fill: #fff1c2; stroke: #505050; stroke-width: 0.5; stroke-linejoin: miter"/>
    </g>
    <text style="font: 700 6.4px 'sans-serif'; text-anchor: middle" x="501.424668" y="323.369953" transform="rotate(-0, 501.424668, 323.369953)">Future</text>
   </g>
   <g id="text_73">
    <g id="patch_47">
     <path d="M 319.875861 213.600496 
L 326.992893 213.600496 
L 326.992893 203.762371 
L 319.875861 203.762371 
z
" style="fill: #ffffff; opacity: 0.7"/>
    </g>
    <text style="font: 700 9px 'sans-serif'; text-anchor: start" x="320.685861" y="211.014402" transform="rotate(-0, 320.685861, 211.014402)">d</text>
   </g>
   <g id="text_74">
    <text style="font: 8px 'sans-serif'; text-anchor: middle" x="418.62812" y="196.442578" transform="rotate(-0, 418.62812, 196.442578)">Publishable claim boundary</text>
   </g>
  </g>
 </g>
 <defs>
  <clipPath id="pd479ebd9c0">
   <rect x="317.656719" y="18.92625" width="201.942801" height="141.986161"/>
  </clipPath>
  <clipPath id="pd5f0c97c48">
   <rect x="50.957875" y="202.442578" width="201.942801" height="141.986161"/>
  </clipPath>
 </defs>
</svg>
